<svg width="235" height="235" viewBox="0 0 235 235" fill="none" xmlns="http://www.w3.org/2000/svg">
<g clip-path="url(#clip0_181_74)">
<path d="M90.1311 111.32L54.0178 116.127V118.488H54.1252C83.9527 118.488 60.6281 118.45 91.861 118.45L90.1311 111.32Z" fill="#A3E397"/>
<path d="M74.4401 32.0985C83.3039 32.0985 90.4894 24.913 90.4894 16.0493C90.4894 7.1855 83.3039 0 74.4401 0C65.5764 0 58.3909 7.1855 58.3909 16.0493C58.3909 24.913 65.5764 32.0985 74.4401 32.0985Z" fill="#A3E397"/>
<path d="M112.056 90.1214C111.05 85.975 107.337 83.1293 103.175 83.1293C102.321 83.1293 103.704 82.9778 82.6749 85.7776C81.6082 94.4023 73.5751 100.695 64.8076 99.4301L41.3269 96.0574C40.783 97.45 40.5719 98.9949 40.783 100.582C41.4499 105.592 46.0531 109.114 51.0574 108.442L96.2154 102.431L100.101 118.45H101.665C104.306 114.194 107.825 110.536 112.04 107.7C113.249 106.887 114.501 106.156 115.786 105.503L112.056 90.1214Z" fill="#A3E397"/>
<path d="M172.378 110.158C172.229 110.157 132.051 110.158 131.903 110.158C121.859 110.157 112.825 115.566 108.119 124.08L171.577 130.097H95.8206C91.6112 130.097 88.1982 133.51 88.1982 137.719C88.1982 141.929 91.6112 145.342 95.8206 145.342C179.862 145.342 177.01 145.287 177.01 145.287C182.23 145.353 186.687 141.092 186.715 135.69L186.771 124.801C186.813 116.821 180.368 110.199 172.378 110.158Z" fill="#A3E397"/>
<path d="M84.4998 126.863C83.2004 126.863 19.6872 126.863 16.3192 126.863C11.2676 126.863 7.17163 130.959 7.17163 136.011C7.17163 141.062 11.2671 145.158 16.3192 145.158C18.5576 145.158 79.3404 145.158 81.7514 145.158C80.6889 143.336 79.9985 141.257 79.8012 139.016C79.384 134.275 81.2562 129.862 84.4998 126.863Z" fill="#A3E397"/>
<path d="M233.752 161.328C233.752 156.954 230.205 153.408 225.831 153.408C220.34 153.408 15.2691 153.408 9.16827 153.408C4.79461 153.408 1.24805 156.954 1.24805 161.328C1.24805 165.042 3.80826 168.15 7.25752 169.006C7.25706 169.045 7.2543 169.082 7.2543 169.12V220.323C7.2543 228.415 13.8389 235 21.9317 235C26.3053 235 29.8519 231.454 29.8519 227.08C29.8519 223.1 26.9176 219.807 23.0947 219.245V170.283H211.904V219.245C208.082 219.808 205.147 223.101 205.147 227.08C205.147 231.454 208.694 235 213.068 235C221.161 235 227.745 228.416 227.745 220.323V169.12C227.745 169.082 227.742 169.045 227.742 169.006C231.191 168.15 233.752 165.042 233.752 161.328Z" fill="#A3E397"/>
<path d="M127.413 65.3625L100.659 39.3992C99.2144 37.997 97.2802 37.2126 95.2671 37.2126C84.5347 37.2126 63.7873 37.2126 53.6144 37.2126C51.0331 37.2126 48.6211 38.4991 47.1836 40.643L32.2157 62.9606C32.2147 62.9615 24.5773 74.3498 24.5773 74.3498C22.9061 76.8421 22.8262 80.1128 24.3941 82.6882C25.5609 84.6049 27.5685 85.991 29.9079 86.327L65.9468 91.503C70.1897 92.1125 74.1085 89.153 74.712 84.939C75.3197 80.7058 72.3813 76.7815 68.1481 76.1734L44.2989 72.748C49.2228 65.4061 49.053 65.6594 54.0183 58.256V66.0542L69.2859 68.2467C74.975 69.0633 79.5378 72.8154 81.6165 77.839L95.033 75.7571V55.5182L112.583 72.5502L110.507 76.7618C115.076 78.9185 118.581 83.0499 119.838 88.2341L120.59 91.3318L128.965 74.3434C130.451 71.3302 129.824 67.7024 127.413 65.3625Z" fill="#A3E397"/>
<path d="M228.033 133.063C227.815 131.699 226.637 130.656 225.212 130.656H220.114C224.006 127.736 226.538 123.095 226.57 117.854C226.625 108.95 219.452 101.688 210.549 101.633C210.514 101.633 210.481 101.633 210.447 101.633C201.591 101.633 194.384 108.785 194.328 117.654C194.295 122.967 196.838 127.695 200.784 130.656H197.14C195.56 130.656 194.28 131.937 194.28 133.516C194.28 135.299 194.28 140.07 194.28 141.795C194.281 143.375 195.562 144.656 197.142 144.656H225.212C226.792 144.656 228.072 143.375 228.072 141.796C228.072 133.022 228.098 133.466 228.033 133.063Z" fill="#A3E397"/>
</g>
<defs>
<clipPath id="clip0_181_74">
<rect width="235" height="235" fill="white"/>
</clipPath>
</defs>
</svg>
