<svg width="681" height="782" viewBox="0 0 681 782" fill="none" xmlns="http://www.w3.org/2000/svg">
<path d="M-102.184 669.645C-102.019 672.379 -101.283 674.949 -100.092 677.241C-98.9751 679.397 -97.4276 681.371 -95.4641 683.022C-95.2066 683.241 -94.9427 683.45 -94.6724 683.655C-70.9191 701.862 -14.2287 708.354 30.9873 708.354C35.8368 708.354 40.7686 708.283 45.6413 708.137C56.1298 707.829 64.3826 699.073 64.0743 688.583C63.7661 678.092 54.9813 669.797 44.5224 670.152C40.0212 670.285 35.4673 670.352 30.9873 670.352C-17.406 670.352 -49.8766 663.35 -64.5707 657.229L-79.668 192.423C-74.8607 194.241 -69.6186 195.932 -63.9394 197.496C-35.837 205.234 1.1917 209.497 40.3316 209.497C51.0207 209.497 61.5557 209.18 71.793 208.559L64.3024 454.674C63.9836 465.163 72.2258 473.925 82.7164 474.245C93.2134 474.604 101.969 466.32 102.287 455.829L109.932 204.641C122.488 202.766 134.165 200.372 144.603 197.496C150.299 195.928 155.556 194.228 160.375 192.404L154.874 368.509C154.546 379 162.784 387.768 173.271 388.093C183.789 388.509 192.527 380.184 192.857 369.696L199.604 153.703C199.64 153.089 199.657 152.47 199.657 151.848C199.657 135.707 187.906 122.639 164.729 113.001C155.047 108.971 143.921 113.561 139.888 123.249C135.858 132.939 140.448 144.059 150.136 148.092C153.605 149.534 156.155 150.847 158.009 151.949C150.389 156.471 134.505 161.979 111.104 165.993L115.977 5.92011C116.295 -4.56842 108.053 -13.33 97.5625 -13.6509C87.1204 -13.9211 78.3103 -5.72326 77.9915 4.76528L75.2343 95.3577C63.8674 94.5892 52.1903 94.1986 40.3274 94.1986C1.18748 94.1986 -35.8412 98.4612 -63.9436 106.201C-100.36 116.231 -118.882 131.525 -119 151.658C-119 151.767 -119 151.877 -119 151.987C-118.998 152.525 -118.983 153.059 -118.954 153.591L-102.214 668.98C-102.207 669.204 -102.199 669.423 -102.184 669.645ZM40.3274 132.203C51.8335 132.203 63.1264 132.595 74.0773 133.374L72.9499 170.426C62.8583 171.108 51.975 171.495 40.3274 171.495C-23.1718 171.495 -63.931 160.02 -77.523 151.85C-63.931 143.679 -23.1697 132.203 40.3274 132.203ZM-31.8088 440.574C-39.2297 433.153 -39.2276 421.123 -31.8067 413.702C-24.3836 406.285 -12.3539 406.283 -4.93506 413.704L1.96651 420.608C9.38745 428.029 9.38534 440.059 1.9644 447.479C-1.74501 451.189 -6.60715 453.045 -11.4693 453.045C-16.3335 453.045 -21.1957 451.189 -24.9051 447.477L-31.8088 440.574ZM319.699 202.048C322.716 180.528 333.92 157.955 344.755 136.125C370.201 84.8586 374.592 66.9365 352.505 54.6956C343.325 49.6076 340.011 38.0423 345.097 28.8648C350.183 19.6874 361.75 16.377 370.925 21.4566C396.488 35.625 407.888 58.2657 403.892 86.9276C400.881 108.519 389.652 131.143 378.792 153.024C353.432 204.117 349.036 221.965 370.925 234.099C380.103 239.187 383.419 250.752 378.331 259.929C374.861 266.189 368.379 269.723 361.695 269.723C358.579 269.723 355.418 268.955 352.501 267.335C327.035 253.218 315.692 230.64 319.699 202.048ZM145.776 746.006C148.031 756.254 141.552 766.392 131.304 768.649C104.91 774.457 70.3763 777.655 34.0655 777.655C-15.7487 777.655 -78.1352 771.279 -103.839 753.391C-112.453 747.395 -114.575 735.555 -108.579 726.942C-102.585 718.33 -90.7413 716.208 -82.1297 722.202C-69.9733 730.664 -25.1204 739.655 34.0655 739.655C67.712 739.655 99.3444 736.773 123.138 731.536C133.384 729.287 143.522 735.758 145.776 746.006ZM666.779 517.435C662.335 513.586 656.356 512.009 650.592 513.17C636.073 516.092 621.174 518.782 605.959 521.237C602.577 515.482 598.464 510.174 593.648 505.358L560.192 471.904C591.381 462.028 620.267 442.666 642.415 415.161C687.574 359.078 693.68 282.889 657.612 225.571C655.357 221.986 651.971 219.259 647.987 217.819C584.3 194.815 511.167 217.031 466.006 273.114C423.927 325.371 415.749 395.075 444.003 450.703L440.061 455.597C433.479 463.77 434.771 475.732 442.943 482.312C451.118 488.897 463.08 487.601 469.659 479.431L473.6 474.539C486.876 477.997 500.432 479.589 513.965 479.418L562.1 527.552C498.384 535.665 430.198 539.873 360.865 539.873C291.533 539.873 223.345 535.663 159.63 527.552L331.346 355.838C344.385 342.799 364.824 339.915 381.055 348.831C390.249 353.883 401.804 350.524 406.856 341.323C411.908 332.127 408.547 320.574 399.351 315.52C368.4 298.522 329.385 304.05 304.475 328.966L128.08 505.358C123.269 510.172 119.156 515.482 115.776 521.235C100.563 518.78 85.6637 516.088 71.1448 513.168C65.3812 512.015 59.4043 513.582 54.9581 517.433C50.5119 521.283 48.1009 526.973 48.4239 532.844C54.0081 634.073 137.112 718.37 252.019 751.527C251.13 753.724 250.641 756.127 250.641 758.644C250.641 769.138 259.147 777.645 269.642 777.645H452.085C462.58 777.645 471.086 769.138 471.086 758.644C471.086 756.127 470.598 753.724 469.709 751.527C584.614 718.37 667.725 634.073 673.313 532.844C673.636 526.973 671.223 521.283 666.779 517.435ZM500.704 440.886L576.835 346.339C583.417 338.167 582.125 326.205 573.953 319.624C565.782 313.043 553.818 314.333 547.237 322.506L471.107 417.053C458.427 377.849 467.064 332.401 495.607 296.952C529.096 255.363 581.874 237.614 628.802 251.503C652.391 294.393 646.304 349.745 612.82 391.329C589.249 420.599 556.126 438.066 522.207 440.996C520.794 440.941 506.449 441.452 500.704 440.886ZM553.088 669.453C501.363 707.62 433.099 728.639 360.867 728.639C288.636 728.639 220.372 707.62 168.647 669.453C126.419 638.294 99.0319 598.457 89.6982 555.359C100.856 557.343 112.189 559.201 123.693 560.932C124.033 560.991 124.371 561.044 124.709 561.084C198.479 572.122 278.946 577.879 360.867 577.879C442.795 577.879 523.267 572.117 597.045 561.082C597.37 561.04 597.695 560.991 598.021 560.936C609.531 559.205 620.877 557.347 632.039 555.359C622.703 598.457 595.316 638.294 553.088 669.453ZM17.446 372.542C13.7366 376.251 8.87442 378.105 4.01228 378.105C-0.851969 378.105 -5.7141 376.249 -9.42562 372.537C-16.8444 365.114 -16.8444 353.085 -9.4214 345.664L-2.51561 338.76C4.90533 331.339 16.9372 331.343 24.356 338.764C31.7748 346.187 31.7748 358.217 24.3518 365.638L17.446 372.542ZM-31.5765 289.702L-38.4781 282.798C-45.899 275.377 -45.8969 263.347 -38.476 255.926C-31.0551 248.508 -19.0253 248.505 -11.6044 255.929L-4.70283 262.832C2.71811 270.253 2.716 282.283 -4.70494 289.704C-8.41435 293.413 -13.2765 295.269 -18.1386 295.269C-23.005 295.267 -27.8671 293.411 -31.5765 289.702Z" fill="#93EC82"/>
</svg>
