<svg width="800" height="800" viewBox="0 0 800 800" fill="none" xmlns="http://www.w3.org/2000/svg">
<path d="M16.8159 683.303C16.9805 686.037 17.7173 688.606 18.9081 690.899C20.0249 693.054 21.5724 695.028 23.5359 696.679C23.7934 696.899 24.0573 697.108 24.3276 697.313C48.0809 715.52 104.771 722.012 149.987 722.012C154.837 722.012 159.769 721.94 164.641 721.794C175.13 721.486 183.383 712.731 183.074 702.24C182.766 691.749 173.981 683.455 163.522 683.809C159.021 683.942 154.467 684.01 149.987 684.01C101.594 684.01 69.1234 677.007 54.4293 670.886L39.332 206.08C44.1393 207.898 49.3814 209.589 55.0606 211.154C83.163 218.891 120.192 223.154 159.332 223.154C170.021 223.154 180.556 222.837 190.793 222.217L183.302 468.332C182.984 478.82 191.226 487.582 201.716 487.903C212.213 488.262 220.969 479.977 221.287 469.487L228.932 218.298C241.488 216.423 253.165 214.029 263.603 211.154C269.299 209.585 274.556 207.886 279.375 206.061L273.874 382.167C273.546 392.657 281.784 401.425 292.271 401.75C302.789 402.166 311.527 393.842 311.857 383.353L318.604 167.361C318.64 166.746 318.657 166.128 318.657 165.505C318.657 149.365 306.906 136.296 283.729 126.659C274.047 122.628 262.921 127.218 258.888 136.906C254.858 146.597 259.448 157.717 269.136 161.749C272.605 163.191 275.155 164.504 277.009 165.606C269.389 170.129 253.505 175.637 230.104 179.65L234.977 19.5775C235.295 9.08896 227.053 0.327398 216.563 0.00649319C206.12 -0.263743 197.31 7.93412 196.992 18.4227L194.234 109.015C182.867 108.247 171.19 107.856 159.327 107.856C120.187 107.856 83.1588 112.119 55.0564 119.858C18.6399 129.889 0.118228 145.182 0 165.315C0 165.425 0 165.535 0 165.644C0.00211122 166.183 0.0168898 166.717 0.0464468 167.249L16.7863 682.637C16.7926 682.861 16.8011 683.081 16.8159 683.303ZM159.327 145.86C170.834 145.86 182.126 146.253 193.077 147.032L191.95 184.084C181.858 184.766 170.975 185.152 159.327 185.152C95.8282 185.152 55.069 173.677 41.477 165.507C55.069 157.337 95.8303 145.86 159.327 145.86ZM87.1912 454.231C79.7703 446.81 79.7724 434.78 87.1933 427.359C94.6164 419.943 106.646 419.941 114.065 427.362L120.967 434.265C128.387 441.686 128.385 453.716 120.964 461.137C117.255 464.846 112.393 466.702 107.531 466.702C102.666 466.702 97.8043 464.846 94.0949 461.135L87.1912 454.231ZM438.699 215.706C441.716 194.186 452.92 171.613 463.755 149.783C489.201 98.516 493.592 80.5938 471.505 68.353C462.325 63.2649 459.011 51.6997 464.097 42.5222C469.183 33.3448 480.75 30.0344 489.925 35.114C515.488 49.2823 526.888 71.9231 522.892 100.585C519.881 122.176 508.652 144.8 497.792 166.681C472.432 217.775 468.036 235.623 489.925 247.756C499.103 252.844 502.419 264.409 497.331 273.587C493.861 279.846 487.379 283.381 480.695 283.381C477.579 283.381 474.418 282.612 471.501 280.993C446.035 266.875 434.692 244.298 438.699 215.706ZM264.776 759.663C267.031 769.911 260.552 780.049 250.304 782.306C223.91 788.114 189.376 791.312 153.065 791.312C103.251 791.312 40.8648 784.937 15.1607 767.048C6.54689 761.052 4.42511 749.213 10.421 740.599C16.4147 731.987 28.2587 729.865 36.8703 735.859C49.0267 744.321 93.8796 753.313 153.065 753.313C186.712 753.313 218.344 750.431 242.138 745.193C252.384 742.944 262.522 749.415 264.776 759.663ZM785.779 531.092C781.335 527.243 775.356 525.666 769.592 526.827C755.073 529.749 740.174 532.439 724.959 534.894C721.577 529.139 717.464 523.832 712.648 519.016L679.192 485.562C710.381 475.685 739.267 456.323 761.415 428.818C806.574 372.736 812.68 296.546 776.612 239.229C774.357 235.644 770.971 232.916 766.987 231.476C703.3 208.472 630.167 230.689 585.006 286.771C542.927 339.028 534.749 408.732 563.003 464.361L559.061 469.254C552.479 477.427 553.771 489.389 561.943 495.97C570.118 502.555 582.08 501.258 588.659 493.088L592.6 488.196C605.876 491.654 619.432 493.246 632.965 493.075L681.1 541.209C617.384 549.322 549.198 553.53 479.865 553.53C410.533 553.53 342.345 549.32 278.63 541.209L450.346 369.495C463.385 356.456 483.824 353.572 500.055 362.488C509.249 367.54 520.804 364.181 525.856 354.981C530.908 345.784 527.547 334.231 518.351 329.177C487.4 312.18 448.385 317.707 423.475 342.624L247.08 519.016C242.269 523.829 238.156 529.139 234.776 534.892C219.563 532.437 204.664 529.745 190.145 526.825C184.381 525.673 178.404 527.239 173.958 531.09C169.512 534.941 167.101 540.631 167.424 546.502C173.008 647.731 256.112 732.027 371.019 765.184C370.13 767.382 369.641 769.784 369.641 772.301C369.641 782.796 378.147 791.302 388.642 791.302H571.085C581.58 791.302 590.086 782.796 590.086 772.301C590.086 769.784 589.598 767.382 588.709 765.184C703.614 732.027 786.725 647.731 792.313 546.502C792.636 540.631 790.223 534.941 785.779 531.092ZM619.704 454.543L695.835 359.997C702.417 351.824 701.125 339.862 692.953 333.281C684.782 326.701 672.818 327.991 666.237 336.163L590.107 430.71C577.427 391.507 586.064 346.058 614.607 310.609C648.096 269.02 700.874 251.271 747.802 265.161C771.391 308.05 765.304 363.402 731.82 404.987C708.249 434.257 675.126 451.723 641.207 454.653C639.794 454.598 625.449 455.109 619.704 454.543ZM672.088 683.11C620.363 721.277 552.099 742.296 479.867 742.296C407.636 742.296 339.372 721.277 287.647 683.11C245.419 651.951 218.032 612.114 208.698 569.016C219.856 571 231.189 572.858 242.693 574.59C243.033 574.649 243.371 574.701 243.709 574.742C317.479 585.779 397.946 591.536 479.867 591.536C561.795 591.536 642.267 585.775 716.045 574.739C716.37 574.697 716.695 574.649 717.021 574.594C728.531 572.863 739.877 571.005 751.039 569.016C741.703 612.114 714.316 651.951 672.088 683.11ZM136.446 386.199C132.737 389.908 127.874 391.762 123.012 391.762C118.148 391.762 113.286 389.906 109.574 386.195C102.156 378.772 102.156 366.742 109.579 359.321L116.484 352.417C123.905 344.997 135.937 345.001 143.356 352.422C150.775 359.845 150.775 371.874 143.352 379.295L136.446 386.199ZM87.4235 303.359L80.5219 296.455C73.101 289.034 73.1031 277.005 80.524 269.584C87.9449 262.165 99.9747 262.163 107.396 269.586L114.297 276.49C121.718 283.911 121.716 295.94 114.295 303.361C110.586 307.071 105.724 308.926 100.861 308.926C95.995 308.924 91.1329 307.068 87.4235 303.359Z" fill="#93EC82"/>
</svg>
