<svg width="800" height="800" viewBox="0 0 800 800" fill="none" xmlns="http://www.w3.org/2000/svg">
<g clip-path="url(#clip0_164_72)">
<path d="M665.667 388.092V232.737C665.667 126.273 579.052 39.6586 472.588 39.6586H366.332C340.624 15.1192 305.847 0 267.584 0C188.646 0 124.421 64.2214 124.421 143.159C124.421 182.896 140.705 218.892 166.937 244.854V387.205C160.378 409.766 157.024 433.743 157.024 458.798C157.024 515.89 175.125 578.047 206.544 631.871L247.372 741.224C269.316 800 331.035 800 364.194 800H468.417C501.572 800 563.292 800 585.239 741.224L626.059 631.883C657.482 578.055 675.583 515.894 675.583 458.798C675.579 434.243 672.155 410.524 665.667 388.092ZM605.671 240.688C613.113 240.688 619.168 246.742 619.168 254.185C619.168 261.627 613.113 267.682 605.671 267.682H401.839C394.397 267.682 388.342 261.623 388.342 254.181C388.342 246.742 394.397 240.688 401.839 240.688H605.671ZM163.509 143.159C163.509 85.7745 210.195 39.0879 267.584 39.0879C324.969 39.0879 371.655 85.7745 371.655 143.159C371.655 200.548 324.969 247.235 267.584 247.235C210.195 247.235 163.509 200.548 163.509 143.159ZM613.422 569.593L458.329 482.298C446.427 475.098 426.953 474.015 416.302 474.015C405.65 474.015 386.177 475.098 374.274 482.298L219.174 569.573C204.437 533.339 196.112 494.986 196.112 458.802C196.112 436.815 199.192 415.86 205.133 396.218H627.392C633.321 415.739 636.492 436.706 636.492 458.802C636.492 494.989 628.162 533.35 613.422 569.593ZM214.092 143.159C214.092 113.668 238.088 89.6715 267.584 89.6715C297.076 89.6715 321.072 113.668 321.072 143.159C321.072 172.655 297.076 196.651 267.584 196.651C238.088 196.651 214.092 172.655 214.092 143.159Z" fill="#93EC82"/>
</g>
<defs>
<clipPath id="clip0_164_72">
<rect width="800" height="800" fill="white"/>
</clipPath>
</defs>
</svg>
